<svg version="1.1" xmlns="http://www.w3.org/2000/svg" xmlns:xlink="http://www.w3.org/1999/xlink" width="539.98846" height="404.98843"><g fill="#ff0000" fill-rule="nonzero" stroke="none" stroke-width="1" stroke-linecap="butt" stroke-linejoin="miter" stroke-miterlimit="10" stroke-dasharray="" stroke-dashoffset="0" font-family="none" font-weight="none" font-size="none" text-anchor="none" style="mix-blend-mode: normal"><path d="M50.52659,155.72205c-0.853,-41.8749 -0.853,-41.8749 -25.03887,-54.64884c-24.18588,-12.77394 -24.18588,-12.77394 -24.18588,51.46764c0,64.24158 0,64.24158 25.03887,54.64884c25.03887,-9.59274 25.03887,-9.59274 24.18588,-51.46764z"/><path d="M25.7681,336.34651c-24.52173,-10.52891 -24.52173,-10.52891 -24.52173,28.09976c0,38.62867 0,38.62867 21.43598,38.62867c21.43598,0 21.43598,0 24.52173,-28.09976c3.08576,-28.09976 3.08576,-28.09976 -21.43598,-38.62867z"/><path d="M111.34281,3.85838c7.20854,-3.68851 7.20854,-3.68851 -7.7394,-3.68851c-14.94795,0 -14.94795,0 -7.20854,3.68851c7.7394,3.68851 7.7394,3.68851 14.94795,0z"/><path d="M73.40863,95.59534c22.4618,-13.30555 22.4618,-13.30555 25.28984,-49.40755c2.82804,-36.102 2.82804,-36.102 -4.91137,-39.79051c-7.7394,-3.68851 -7.7394,-3.68851 -49.47571,-3.68851c-41.73631,0 -41.73631,0 -41.73631,40.32212c0,40.32212 0,40.32212 24.18588,53.09606c24.18588,12.77394 24.18588,12.77394 46.64767,-0.53161z"/><path d="M77.94266,209.07168c22.41959,11.42451 22.41959,11.42451 53.04529,-2.0894c30.6257,-13.51391 30.6257,-13.51391 31.98794,-51.60652c1.36224,-38.09262 1.36224,-38.09262 -31.43649,-53.09105c-32.79873,-14.99844 -32.79873,-14.99844 -55.26053,-1.69288c-22.4618,13.30555 -22.4618,13.30555 -21.6088,55.18045c0.853,41.8749 0.853,41.8749 23.27259,53.29941z"/><path d="M77.89727,330.34529c26.22992,-11.83381 26.22992,-11.83381 22.93673,-57.87428c-3.29318,-46.04047 -3.29318,-46.04047 -25.71277,-57.46497c-22.41959,-11.42451 -22.41959,-11.42451 -47.45847,-1.83177c-25.03887,9.59274 -25.03887,9.59274 -25.03887,58.76987c0,49.17713 0,49.17713 24.52173,59.70604c24.52173,10.52891 24.52173,10.52891 50.75165,-1.3049z"/><path d="M126.29292,333.41414c-19.76312,-10.32199 -19.76312,-10.32199 -45.99303,1.51182c-26.22992,11.83381 -26.22992,11.83381 -29.31567,39.93357c-3.08576,28.09976 -3.08576,28.09976 49.70493,28.09976c52.79069,0 52.79069,0 49.07879,-29.61158c-3.7119,-29.61158 -3.7119,-29.61158 -23.47501,-39.93357z"/><path d="M217.91162,0.15668c0.26378,-0.14978 0.26378,-0.14978 -0.36695,-0.14978c-0.63073,0 -0.63073,0 -0.26378,0.14978c0.36695,0.14978 0.36695,0.14978 0.63073,0z"/><path d="M190.97996,95.41815c24.14006,-16.9386 24.14006,-16.9386 23.93863,-54.63916c-0.20143,-37.70055 -0.93532,-38.00012 -47.26916,-38.00012c-46.33384,0 -46.33384,0 -53.54238,3.68851c-7.20854,3.68851 -7.20854,3.68851 -10.03658,39.79051c-2.82804,36.102 -2.82804,36.102 29.9707,51.10043c32.79873,14.99844 32.79873,14.99844 56.93879,-1.94017z"/><path d="M247.29896,207.63659c25.76761,-12.3455 25.76761,-12.3455 30.03032,-49.0959c4.26271,-36.7504 4.26271,-36.7504 -27.35209,-55.98766c-31.6148,-19.23726 -31.6148,-19.23726 -55.75486,-2.29865c-24.14006,16.9386 -24.14006,16.9386 -25.50231,55.03122c-1.36224,38.09262 -1.36224,38.09262 25.72454,51.39456c27.08678,13.30194 27.08678,13.30194 52.8544,0.95644z"/><path d="M129.3518,328.6566c19.76312,10.32199 19.76312,10.32199 54.52677,-4.28542c34.76365,-14.60741 34.76365,-14.60741 34.65618,-56.57443c-0.10747,-41.96702 -0.10747,-41.96702 -27.19425,-55.26895c-27.08678,-13.30194 -27.08678,-13.30194 -57.71248,0.21197c-30.6257,13.51391 -30.6257,13.51391 -27.33251,59.55437c3.29318,46.04047 3.29318,46.04047 23.0563,56.36246z"/><path d="M212.36086,402.74667c53.46562,0 53.46562,0 50.89371,-32.56819c-2.57191,-32.56819 -2.57191,-32.56819 -22.41387,-44.21899c-19.84196,-11.6508 -19.84196,-11.6508 -54.60561,2.95661c-34.76365,14.60741 -34.76365,14.60741 -31.05175,44.21899c3.7119,29.61158 3.7119,29.61158 57.17752,29.61158z"/><path d="M252.7694,97.83598c31.6148,19.23726 31.6148,19.23726 59.62951,5.41103c28.01472,-13.82622 28.01472,-13.82622 24.40151,-57.0876c-3.61321,-43.26137 -3.61321,-43.26137 -59.56716,-43.26137c-55.95395,0 -56.48152,0.29957 -56.28009,38.00012c0.20143,37.70055 0.20143,37.70055 31.81622,56.93781z"/><path d="M364.23944,210.40867c29.39786,-17.03814 29.39786,-17.03814 26.83683,-55.61413c-2.56104,-38.57599 -2.56104,-38.57599 -25.18991,-49.41225c-22.62887,-10.83626 -22.62887,-10.83626 -50.64359,2.98996c-28.01472,13.82622 -28.01472,13.82622 -32.27742,50.57663c-4.26271,36.7504 -4.26271,36.7504 23.80676,52.62417c28.06947,15.87377 28.06947,15.87377 57.46733,-1.16438z"/><path d="M244.38824,321.30755c19.84196,11.6508 19.84196,11.6508 56.03865,-2.91935c36.19669,-14.57014 36.19669,-14.57014 33.88766,-50.08955c-2.30904,-35.51941 -2.30904,-35.51941 -30.37851,-51.39317c-28.06947,-15.87377 -28.06947,-15.87377 -53.83708,-3.52826c-25.76761,12.3455 -25.76761,12.3455 -25.66015,54.31252c0.10747,41.96702 0.10747,41.96702 19.94943,53.61781z"/><path d="M326.56659,402.60208c54.92243,0 54.92243,0 55.54649,-32.94383c0.62406,-32.94383 0.62406,-32.94383 -21.29764,-47.13834c-21.92171,-14.1945 -21.92171,-14.1945 -58.1184,0.37564c-36.19669,14.57014 -36.19669,14.57014 -33.62478,47.13834c2.57191,32.56819 2.57191,32.56819 57.49434,32.56819z"/><path d="M450.83937,1.54648c2.08412,-1.4784 2.08412,-1.4784 -4.12328,-1.4784c-6.2074,0 -6.2074,0 -2.08412,1.4784c4.12328,1.4784 4.12328,1.4784 6.2074,0z"/><path d="M368.77754,100.12784c22.62887,10.83626 22.62887,10.83626 51.05232,-2.33358c28.42345,-13.16984 28.42345,-13.16984 27.35966,-52.61923c-1.06379,-39.44939 -9.31034,-42.40619 -58.78881,-42.40619c-49.47847,0 -49.47847,0 -45.86526,43.26137c3.61321,43.26137 3.61321,43.26137 26.24208,54.09763z"/><path d="M429.89354,209.42564c30.68047,16.19501 30.68047,16.19501 50.79332,6.87835c20.11285,-9.31665 20.11285,-9.31665 19.64121,-57.04004c-0.47164,-47.72339 -0.47164,-47.72339 -24.93091,-58.62419c-24.45927,-10.9008 -24.45927,-10.9008 -52.88272,2.26905c-28.42345,13.16984 -28.42345,13.16984 -25.86241,51.74583c2.56104,38.57599 2.56104,38.57599 33.24151,54.771z"/><path d="M364.40287,317.94498c21.92171,14.1945 21.92171,14.1945 50.09389,1.14222c28.17218,-13.05228 28.17218,-13.05228 35.84759,-50.55704c7.67541,-37.50476 7.67541,-37.50476 -23.00506,-53.69977c-30.68047,-16.19501 -30.68047,-16.19501 -60.07834,0.84313c-29.39786,17.03814 -29.39786,17.03814 -27.08883,52.55755c2.30904,35.51941 2.30904,35.51941 24.23074,49.71391z"/><path d="M473.34577,329.49967c-28.30413,-18.82206 -28.30413,-18.82206 -56.47631,-5.76978c-28.17218,13.05228 -28.17218,13.05228 -28.79624,45.99612c-0.62406,32.94383 -0.62406,32.94383 55.28485,32.94383c55.90892,0 55.90892,0 57.10037,-27.17405c1.19145,-27.17405 1.19145,-27.17405 -27.11267,-45.99612z"/><path d="M477.7264,95.42275c24.45927,10.9008 24.45927,10.9008 42.22622,2.80844c17.76695,-8.09236 17.76695,-8.09236 17.76695,-51.82859c0,-43.73623 0,-43.73623 -41.20588,-43.73623c-41.20588,0 -45.37413,2.9568 -44.31034,42.40619c1.06379,39.44939 1.06379,39.44939 25.52306,50.35019z"/><path d="M521.76724,213.1644c17.2953,6.17301 17.2953,6.17301 17.2953,-55.81574c0,-61.98876 0,-61.98876 -17.76695,-53.8964c-17.76695,8.09236 -17.76695,8.09236 -17.2953,55.81574c0.47164,47.72339 0.47164,47.72339 17.76695,53.8964z"/><path d="M520.92354,335.90546c16.77944,-8.3895 16.77944,-8.3895 16.77944,-59.47046c0,-51.08096 0,-51.08096 -17.2953,-57.25397c-17.2953,-6.17301 -17.2953,-6.17301 -37.40815,3.14364c-20.11285,9.31665 -20.11285,9.31665 -27.78826,46.82141c-7.67541,37.50476 -7.67541,37.50476 20.62871,56.32682c28.30413,18.82206 28.30413,18.82206 45.08357,10.43256z"/><path d="M504.31212,376.04263c-1.19145,27.17405 -1.19145,27.17405 16.77944,27.17405c17.97089,0 17.97089,0 17.97089,-35.56356c0,-35.56356 0,-35.56356 -16.77944,-27.17405c-16.77944,8.3895 -16.77944,8.3895 -17.97089,35.56356z"/></g></svg>